<svg width="253.477" height="29.219" viewBox="0 0 253.477 29.219" xmlns="http://www.w3.org/2000/svg"><g id="svgGroup" stroke-linecap="round" fill-rule="evenodd" font-size="9pt" stroke="#000" stroke-width="0.25mm" fill="#000" style="stroke:#000;stroke-width:0.25mm;fill:#000"><path d="M 18.887 0.391 L 24.258 21.797 L 28.633 0.391 L 33.535 0.391 L 26.973 28.828 L 22.246 28.828 L 16.836 8.067 L 11.309 28.828 L 6.563 28.828 L 0 0.391 L 4.902 0.391 L 9.316 21.758 L 14.746 0.391 L 18.887 0.391 Z M 215.41 0.391 L 220.781 21.797 L 225.156 0.391 L 230.059 0.391 L 223.496 28.828 L 218.77 28.828 L 213.359 8.067 L 207.832 28.828 L 203.086 28.828 L 196.523 0.391 L 201.426 0.391 L 205.84 21.758 L 211.27 0.391 L 215.41 0.391 Z M 170.02 0.391 L 170.02 28.828 L 165.078 28.828 L 152.402 8.653 L 152.402 28.828 L 147.461 28.828 L 147.461 0.391 L 152.402 0.391 L 165.117 20.645 L 165.117 0.391 L 170.02 0.391 Z M 253.457 8.692 L 248.535 8.692 A 5.707 5.707 0 0 0 248.355 7.216 A 4.055 4.055 0 0 0 247.139 5.205 Q 245.742 3.946 243.145 3.946 A 9.119 9.119 0 0 0 241.688 4.054 Q 240.923 4.179 240.306 4.444 A 4.223 4.223 0 0 0 239.385 4.981 A 3.358 3.358 0 0 0 238.065 7.448 A 4.772 4.772 0 0 0 238.047 7.871 A 2.973 2.973 0 0 0 239.038 10.104 A 4.45 4.45 0 0 0 239.492 10.479 A 7.801 7.801 0 0 0 240.453 11.062 Q 241.871 11.801 244.258 12.51 A 31.331 31.331 0 0 1 246.475 13.254 Q 247.502 13.645 248.359 14.072 A 14.417 14.417 0 0 1 249.59 14.756 A 10.657 10.657 0 0 1 251.047 15.841 Q 251.851 16.561 252.375 17.377 A 6.437 6.437 0 0 1 252.539 17.647 A 6.993 6.993 0 0 1 253.383 20.137 A 9.101 9.101 0 0 1 253.477 21.465 A 7.468 7.468 0 0 1 252.992 24.205 A 6.756 6.756 0 0 1 250.752 27.119 A 9.409 9.409 0 0 1 247.542 28.694 Q 245.693 29.219 243.359 29.219 A 14.569 14.569 0 0 1 239.524 28.727 A 12.956 12.956 0 0 1 237.686 28.077 A 10.732 10.732 0 0 1 235.386 26.717 A 8.684 8.684 0 0 1 233.662 24.922 A 7.736 7.736 0 0 1 232.241 20.771 A 9.615 9.615 0 0 1 232.227 20.235 L 237.168 20.235 A 5.853 5.853 0 0 0 237.373 21.826 A 4.229 4.229 0 0 0 238.77 23.985 A 5.236 5.236 0 0 0 240.541 24.927 Q 241.296 25.168 242.208 25.259 A 11.682 11.682 0 0 0 243.359 25.313 A 10.175 10.175 0 0 0 244.777 25.221 Q 246.323 25.003 247.236 24.268 A 3.33 3.33 0 0 0 248.522 21.846 A 4.294 4.294 0 0 0 248.535 21.504 A 4.257 4.257 0 0 0 248.365 20.268 A 3.22 3.22 0 0 0 247.217 18.614 Q 246.161 17.8 243.744 16.974 A 36.553 36.553 0 0 0 242.461 16.563 Q 240.046 15.836 238.325 14.992 A 14.798 14.798 0 0 1 236.992 14.258 A 9.957 9.957 0 0 1 234.943 12.587 A 6.712 6.712 0 0 1 233.105 7.891 A 6.826 6.826 0 0 1 235.329 2.728 A 8.932 8.932 0 0 1 235.908 2.227 A 9.911 9.911 0 0 1 239.885 0.354 Q 241.402 0 243.184 0 A 13.766 13.766 0 0 1 246.115 0.3 A 11.037 11.037 0 0 1 248.477 1.094 Q 250.801 2.188 252.129 4.209 Q 253.457 6.231 253.457 8.692 Z M 192.48 12.227 L 192.48 16.133 L 180.801 16.133 L 180.801 24.883 L 194.453 24.883 L 194.453 28.828 L 175.859 28.828 L 175.859 0.391 L 194.316 0.391 L 194.316 4.375 L 180.801 4.375 L 180.801 12.227 L 192.48 12.227 Z M 80.918 28.828 L 75.215 17.871 L 69.707 17.871 L 69.707 28.828 L 64.766 28.828 L 64.766 0.391 L 74.766 0.391 Q 78.172 0.391 80.502 1.448 A 8.285 8.285 0 0 1 82.363 2.598 A 7.145 7.145 0 0 1 84.839 6.846 A 10.847 10.847 0 0 1 85.039 8.985 A 9.77 9.77 0 0 1 84.803 11.187 A 7.125 7.125 0 0 1 83.662 13.76 A 8.343 8.343 0 0 1 80.987 16.146 A 10.54 10.54 0 0 1 79.824 16.719 L 86.211 28.575 L 86.211 28.828 L 80.918 28.828 Z M 94.668 0.391 L 94.668 24.883 L 107.578 24.883 L 107.578 28.828 L 89.727 28.828 L 89.727 0.391 L 94.668 0.391 Z M 119.551 28.828 L 111.367 28.828 L 111.367 0.391 L 119.766 0.391 A 14.449 14.449 0 0 1 123.531 0.865 A 12.181 12.181 0 0 1 126.455 2.071 Q 129.375 3.75 130.977 6.836 A 14.208 14.208 0 0 1 132.437 11.62 A 18.016 18.016 0 0 1 132.578 13.907 L 132.578 15.332 A 17.197 17.197 0 0 1 132.188 19.076 A 13.512 13.512 0 0 1 130.967 22.442 A 11.315 11.315 0 0 1 126.377 27.168 A 13.134 13.134 0 0 1 121.42 28.725 A 16.453 16.453 0 0 1 119.551 28.828 Z M 59.844 13.77 L 59.844 15.352 A 20.492 20.492 0 0 1 59.526 19.045 A 15.337 15.337 0 0 1 58.398 22.686 A 11.746 11.746 0 0 1 56.388 25.762 A 10.329 10.329 0 0 1 54.268 27.53 A 11.037 11.037 0 0 1 49.264 29.169 A 13.663 13.663 0 0 1 48.086 29.219 Q 44.629 29.219 41.924 27.53 A 10.913 10.913 0 0 1 38.081 23.382 A 13.356 13.356 0 0 1 37.744 22.715 Q 36.27 19.59 36.25 15.508 L 36.25 13.907 A 19.971 19.971 0 0 1 36.596 10.106 A 15.332 15.332 0 0 1 37.725 6.563 Q 39.199 3.379 41.885 1.69 Q 44.57 0 48.047 0 A 12.307 12.307 0 0 1 51.708 0.529 A 10.732 10.732 0 0 1 54.209 1.67 Q 56.895 3.34 58.359 6.475 Q 59.824 9.61 59.844 13.77 Z M 119.766 4.375 L 116.309 4.375 L 116.309 24.883 L 119.531 24.883 A 9.915 9.915 0 0 0 121.977 24.599 A 6.669 6.669 0 0 0 125.498 22.452 A 8.006 8.006 0 0 0 127 19.706 Q 127.596 17.887 127.617 15.469 L 127.617 13.887 A 17.063 17.063 0 0 0 127.421 11.208 Q 127.198 9.809 126.722 8.685 A 7.536 7.536 0 0 0 125.605 6.817 Q 123.594 4.375 119.766 4.375 Z M 54.902 15.352 L 54.902 13.868 A 20.064 20.064 0 0 0 54.73 11.145 Q 54.347 8.359 53.115 6.621 A 5.706 5.706 0 0 0 48.964 4.155 A 7.773 7.773 0 0 0 48.047 4.102 A 6.526 6.526 0 0 0 45.676 4.516 Q 44.11 5.121 43.037 6.612 A 8.647 8.647 0 0 0 41.827 9.099 Q 41.214 11.058 41.191 13.711 L 41.191 15.352 A 19.419 19.419 0 0 0 41.37 18.074 Q 41.566 19.456 41.978 20.587 A 8.37 8.37 0 0 0 43.018 22.598 A 5.783 5.783 0 0 0 47.202 25.106 A 7.525 7.525 0 0 0 48.086 25.157 A 6.848 6.848 0 0 0 50.334 24.805 A 5.631 5.631 0 0 0 53.135 22.657 A 8.31 8.31 0 0 0 54.246 20.352 Q 54.595 19.251 54.758 17.909 A 21.206 21.206 0 0 0 54.902 15.352 Z M 69.707 4.375 L 69.707 13.907 L 74.785 13.907 Q 76.713 13.907 77.99 13.158 A 4.33 4.33 0 0 0 78.691 12.647 A 4.141 4.141 0 0 0 80.03 10.112 A 5.956 5.956 0 0 0 80.098 9.2 A 6.44 6.44 0 0 0 79.948 7.766 Q 79.721 6.774 79.153 6.054 A 3.874 3.874 0 0 0 78.799 5.664 A 4.177 4.177 0 0 0 77.248 4.74 Q 76.613 4.519 75.837 4.432 A 9.431 9.431 0 0 0 74.922 4.375 L 69.707 4.375 Z" vector-effect="non-scaling-stroke"/></g></svg>
